<svg width="354" height="354" viewBox="0 0 354 354" fill="none" xmlns="http://www.w3.org/2000/svg">
<rect width="354" height="354" fill="white"/>
<path fill-rule="evenodd" clip-rule="evenodd" d="M162.039 51.7281C160.483 54.2181 157.445 59.0551 156.816 60.0421C156.606 60.3721 156.121 61.1801 155.739 61.8381C154.837 63.3871 154.684 63.6301 151.655 68.3391C149.565 71.5891 148.095 73.9171 144.848 79.1171C141.331 84.7491 140.804 85.6021 139.338 88.0321C138.661 89.1551 136.998 91.7801 135.643 93.8661C134.288 95.9511 132.694 98.4421 132.102 99.4011C131.509 100.36 130.331 102.227 129.484 103.549C128.638 104.872 127.529 106.621 127.021 107.437C126.513 108.252 124.989 110.621 123.634 112.702C122.279 114.782 120.477 117.605 119.631 118.974C118.784 120.344 116.982 123.191 115.628 125.303C114.273 127.414 112.333 130.468 111.317 132.091C107.799 137.706 104.92 142.252 103.52 144.398C101.869 146.928 101.306 147.819 99.138 151.326C98.249 152.766 95.516 157.062 93.066 160.872C88.236 168.383 88.334 168.231 84.833 173.651C81.699 178.502 79.992 181.165 77.786 184.646C76.788 186.22 75.385 188.409 74.668 189.51C73.442 191.392 72.55 192.783 69.094 198.209C66.717 201.939 66.376 202.464 63.852 206.292C62.511 208.324 60.737 211.095 59.909 212.45C58.432 214.868 54.431 221.133 51.257 225.999C50.373 227.354 48.921 229.64 48.029 231.08C47.138 232.52 44.992 235.845 43.261 238.47C39.165 244.682 35.709 250.033 33.41 253.725C31.205 257.268 28.551 261.375 23.769 268.647C21.82 271.611 19.924 274.521 19.554 275.114C19.185 275.707 18.618 276.607 18.294 277.115C17.971 277.624 17.637 278.178 17.552 278.347C17.467 278.517 16.851 279.487 16.182 280.503C12.643 285.882 8.876 291.715 7.236 294.353C6.22 295.989 4.65 298.461 3.748 299.846C2.846 301.232 1.851 302.86 1.538 303.464C1.225 304.068 0.751001 304.743 0.485001 304.964C0.218001 305.185 0 305.765 0 306.252V307.139H26.578C52.444 307.139 53.173 307.123 53.796 306.542C54.148 306.214 55.179 304.798 56.087 303.396C56.994 301.994 58.875 299.11 60.267 296.987C61.658 294.864 63.72 291.626 64.849 289.792C65.978 287.957 69.432 282.622 72.524 277.936C81.01 265.08 83.126 261.832 86.268 256.84C87.851 254.325 89.631 251.523 90.223 250.614C90.816 249.704 91.848 248.089 92.516 247.025C93.184 245.961 94.743 243.534 95.98 241.631C97.217 239.728 98.23 238.113 98.23 238.041C98.23 237.97 99.096 236.603 100.154 235.005C101.213 233.406 102.841 230.899 103.772 229.433C104.704 227.968 107.406 223.848 109.777 220.279C115.517 211.638 116.187 210.61 117.484 208.447C118.093 207.431 118.964 206.024 119.419 205.32C120.246 204.04 121.867 201.518 125.635 195.648C126.736 193.933 127.777 192.301 127.948 192.02C128.674 190.835 132.1 185.522 134.73 181.503C138.524 175.706 145.449 164.975 148.045 160.872C148.634 159.941 149.675 158.347 150.357 157.331C151.04 156.315 152.442 154.227 153.474 152.691C155.776 149.266 155.808 149.214 157.345 146.553C159.149 143.429 163.295 137.369 163.718 137.238C164.154 137.103 165.321 138.66 170.24 145.938C175.138 153.186 176.036 154.498 176.348 154.868C176.491 155.037 177.112 155.938 177.727 156.869C178.343 157.801 180.419 160.738 182.341 163.397C184.263 166.056 186.944 169.839 188.299 171.805C189.654 173.771 193.049 178.481 195.843 182.272C198.638 186.063 201.376 189.831 201.929 190.646C204.068 193.797 205.024 195.143 207.829 198.958C209.425 201.128 211.573 203.967 212.602 205.265C213.631 206.563 216.136 209.873 218.168 212.619C220.2 215.365 222.764 218.768 223.865 220.181C226.39 223.422 227.655 225.136 229.44 227.736C230.22 228.873 231.398 230.491 232.057 231.333C232.717 232.175 233.525 233.234 233.853 233.685C234.181 234.137 234.666 234.763 234.931 235.077C235.827 236.14 236.331 236.789 238.645 239.861C239.915 241.547 241.994 244.276 243.264 245.925C244.534 247.574 246.197 249.779 246.959 250.824C247.721 251.87 249.661 254.425 251.27 256.502C257.361 264.367 259.661 267.376 262.436 271.111C264.009 273.228 267.016 277.177 269.12 279.887C271.223 282.597 273.853 285.995 274.963 287.439C276.074 288.883 278.091 291.505 279.446 293.266C280.801 295.027 283.813 298.868 286.14 301.803L290.371 307.139H320.687C337.361 307.139 351.072 307.027 351.156 306.89C351.478 306.37 348.999 303.041 338.728 290.202C334.732 285.206 330.501 279.871 329.326 278.347C328.152 276.823 325.525 273.521 323.488 271.01C321.451 268.499 319.406 265.954 318.944 265.353C318.482 264.753 317.515 263.569 316.796 262.722C316.077 261.876 314.733 260.195 313.809 258.987C312.886 257.78 311.961 256.654 311.755 256.484C311.549 256.315 310.228 254.652 308.82 252.789C307.411 250.926 302.928 245.233 298.857 240.139C294.786 235.044 290.281 229.363 288.846 227.514C282.338 219.127 278.551 214.286 278.388 214.144C278.291 214.059 276.901 212.258 275.299 210.141C273.698 208.024 271.276 204.837 269.917 203.058C265.883 197.78 255.217 183.523 253.888 181.634C253.21 180.671 250.716 177.27 248.345 174.076C243.032 166.919 239.829 162.465 236.463 157.553C234.269 154.351 228.122 145.697 227.337 144.706C227.203 144.537 226.857 144.052 226.568 143.628C226.279 143.205 225.216 141.681 224.204 140.241C223.193 138.801 220.855 135.406 219.009 132.697C217.162 129.987 214.978 126.8 214.153 125.614C212 122.517 204.492 111.283 203.967 110.372C203.218 109.074 199.755 103.847 192.848 93.5901C192.163 92.5741 190.808 90.4951 189.836 88.9711C185.298 81.8561 184.679 80.9021 179.502 73.0411C178.751 71.9001 177.732 70.3071 177.237 69.5001C173.702 63.7331 164.115 49.4021 163.792 49.4021C163.627 49.4021 162.838 50.4491 162.039 51.7281Z" fill="#151E2C"/>
<path fill-rule="evenodd" clip-rule="evenodd" d="M315.135 47.1692L298.167 47.2512L297.478 47.9422C296.551 48.8702 293.652 52.7302 289.915 58.0112C288.222 60.4052 286.067 63.4312 285.126 64.7362C284.185 66.0402 282.681 68.1972 281.783 69.5292C280.884 70.8612 279.963 72.1782 279.735 72.4552C279.506 72.7322 278.249 74.4832 276.939 76.3462C275.63 78.2092 273.155 81.6732 271.439 84.0442C269.723 86.4152 267.606 89.3942 266.735 90.6642C264.317 94.1882 262.585 96.6302 262.222 97.0282C262.042 97.2262 261.27 98.3042 260.508 99.4232C258.872 101.825 254.805 107.668 252.35 111.142C240.537 127.859 240.848 127.29 242.355 129.414C242.915 130.203 245.364 133.811 247.797 137.431C250.229 141.051 252.941 144.957 253.823 146.11C255.773 148.659 257.148 150.614 261.372 156.846C263.159 159.484 265.048 162.216 265.568 162.918C266.087 163.619 266.651 164.403 266.821 164.66C267.623 165.873 268.45 165.603 269.642 163.739C270.272 162.755 271.79 160.564 273.016 158.871C274.242 157.177 275.746 155.099 276.357 154.252C276.968 153.405 278.398 151.439 279.535 149.884C280.671 148.328 281.809 146.753 282.063 146.383C282.317 146.014 283.149 144.898 283.911 143.905C284.673 142.912 286.031 141.092 286.929 139.861C287.826 138.631 289.073 136.932 289.7 136.086C290.679 134.764 294.755 129.149 296.853 126.23C297.219 125.722 299.479 122.648 301.877 119.398C304.274 116.148 307.344 111.953 308.699 110.075C310.054 108.196 311.558 106.144 312.041 105.513C312.524 104.883 313.424 103.607 314.042 102.677C315.003 101.232 318.494 96.3852 319.257 95.4372C319.394 95.2682 320.98 93.0512 322.782 90.5102C325.783 86.2792 331.858 77.9152 334.873 73.8612C335.551 72.9502 336.936 71.0072 337.952 69.5442C338.969 68.0812 340.354 66.1722 341.032 65.3022C341.709 64.4322 342.674 63.0972 343.177 62.3352C343.679 61.5732 344.734 60.1182 345.521 59.1022C346.308 58.0852 347.71 56.1312 348.636 54.7582C349.562 53.3852 350.947 51.4452 351.714 50.4472C354.231 47.1702 354.525 47.3762 346.992 47.1412C343.405 47.0302 338.588 46.9722 336.286 47.0132C333.985 47.0542 324.467 47.1242 315.135 47.1692ZM184.282 208.221C183.258 209.531 182.015 211.226 181.519 211.988C181.023 212.751 180.337 213.736 179.993 214.178C179.65 214.62 179.2 215.244 178.993 215.564C178.786 215.884 178.138 216.838 177.553 217.685C176.967 218.532 175.964 219.987 175.324 220.918C174.684 221.85 173.518 223.443 172.734 224.46C171.949 225.476 170.131 228.039 168.694 230.156C167.257 232.273 165.361 234.975 164.481 236.161C162.408 238.953 162.682 238.568 160.766 241.397C159.85 242.751 159.013 243.928 158.907 244.013C158.801 244.098 157.921 245.345 156.952 246.784C155.983 248.224 154.595 250.233 153.867 251.249C153.139 252.266 151.867 254.067 151.041 255.252C150.215 256.438 149.147 257.962 148.668 258.64C148.189 259.317 147.17 260.772 146.402 261.873C145.635 262.974 144.249 264.914 143.324 266.184C142.399 267.454 141.406 268.84 141.117 269.263C140.828 269.687 139.886 271.003 139.023 272.189C138.161 273.374 137.359 274.552 137.242 274.806C137.124 275.06 136.405 276.099 135.644 277.115C134.883 278.132 133.745 279.725 133.115 280.657C132.486 281.588 131.267 283.251 130.407 284.352C129.547 285.453 127.508 288.363 125.876 290.818C124.245 293.274 122.417 295.976 121.815 296.823C121.213 297.67 120.544 298.624 120.329 298.944C120.114 299.264 119.648 299.888 119.294 300.33C118.05 301.88 115.166 306.367 115.166 306.751C115.166 307.06 121.007 307.139 143.887 307.139H172.609L174.674 304.29C175.81 302.724 177.908 299.779 179.336 297.747C180.765 295.714 182.436 293.359 183.05 292.512C185.086 289.704 188.253 285.234 191.978 279.909C192.816 278.711 193.618 277.593 193.759 277.423C193.991 277.146 196.966 272.991 198.609 270.649C199.549 269.31 204.385 262.698 204.69 262.335C204.832 262.165 205.775 260.803 206.786 259.306C209.328 255.539 209.346 255.514 211.108 253.097C215.949 246.457 216.058 246.211 214.827 244.73C214.43 244.251 213.433 242.889 212.614 241.704C211.794 240.518 209.841 237.816 208.274 235.699C206.707 233.582 205.105 231.402 204.714 230.854C201.088 225.775 198.811 222.653 197.383 220.803C196.451 219.596 195.274 217.985 194.767 217.223C194.26 216.461 192.874 214.521 191.688 212.913C190.501 211.304 189.308 209.641 189.035 209.217C188.763 208.794 188 207.861 187.341 207.144L186.143 205.84L184.282 208.221Z" fill="#0FD5CD"/>
</svg>
